<?xml version="1.0" encoding="UTF-8"?>
<svg width="146px" height="25px" viewBox="0 0 146 25" version="1.1" xmlns="http://www.w3.org/2000/svg" xmlns:xlink="http://www.w3.org/1999/xlink">
    <!-- Generator: Sketch 52.3 (67297) - http://www.bohemiancoding.com/sketch -->
    <title>Combined Shape</title>
    <desc>Created with Sketch.</desc>
    <g id="Page-1" stroke="none" stroke-width="1" fill="none" fill-rule="evenodd">
        <g id="TrueLife-Landing-Page" transform="translate(-177.000000, -7506.000000)" fill="#131E29" fill-rule="nonzero">
            <g id="Партнеры-и-лояльность" transform="translate(0.000000, 7052.000000)">
                <g id="Group" transform="translate(147.000000, 424.000000)">
                    <path d="M42.6262626,52.0149254 L42.6262626,33.4765892 L33.0152269,39.1571417 L33.0152269,51.5820312 L33.6385647,52.0149254 L42.6262626,52.0149254 Z M32.6864389,52.0149254 L33.0152269,52.1177094 L33.0152269,52.0149254 L32.6864389,52.0149254 Z M30,37.4626866 L42.6262626,30 L55.2525253,37.4626866 L55.2525253,53.1343284 L52.5660864,55 L32.6864389,55 L30,53.1343284 L30,37.4626866 Z M82.1467711,55 L78.5650456,55 L75.8995755,48.3039958 L66.0490592,48.3039958 L66.0490592,55 L62.8282828,55 L62.8282828,37.6500297 L79.3702397,37.6500297 L81.5914648,39.818776 L81.5914648,46.1352496 L79.3702397,48.3039958 L82.1467711,55 Z M78.3706884,45.1593137 L78.3706884,40.6591652 L66.0490592,40.6591652 L66.0490592,45.1593137 L78.3706884,45.1593137 Z M87.1722929,41.2013518 L87.1722929,55 L83.9515165,55 L83.9515165,41.2013518 L87.1722929,41.2013518 Z M87.1722929,39.818776 L83.9515165,39.818776 L83.9515165,36.5656566 L87.1722929,36.5656566 L87.1722929,39.818776 Z M100.999419,52.8312537 L98.778194,55 L92.1700493,55 L89.9488242,52.8312537 L89.9488242,43.370098 L92.1700493,41.2013518 L98.778194,41.2013518 L100.999419,43.370098 L100.999419,47.490716 L98.778194,49.6594623 L93.1696006,49.6594623 L93.1696006,52.1264112 L100.999419,52.1264112 L100.999419,52.8312537 Z M97.7786427,46.7858734 L97.7786427,44.2104872 L93.1696006,44.2104872 L93.1696006,46.7858734 L97.7786427,46.7858734 Z M106.885666,36.5656566 L106.885666,55 L103.637124,55 L103.637124,37.6229204 L106.247063,36.6198752 L106.885666,36.5656566 Z M116.436933,44.2104872 L113.382749,44.2104872 L113.382749,51.9908645 L116.381403,51.9908645 L116.381403,55 L112.383198,55 L110.161973,52.8312537 L110.161973,44.2104872 L106.885666,44.2104872 L106.885666,41.2013518 L110.161973,41.2013518 L110.161973,37.7855764 L112.688616,36.5656566 L113.382749,36.5656566 L113.382749,41.2013518 L116.436933,41.2013518 L116.436933,44.2104872 Z M136.233602,52.8312537 L134.012377,55 L126.654569,55 L125.238538,53.6174242 L125.238538,51.8010992 L132.873999,51.8010992 L132.873999,47.7889186 L127.404232,47.7889186 L125.183007,45.6201723 L125.183007,39.818776 L127.404232,37.6500297 L134.762041,37.6500297 L136.178072,39.0326055 L136.178072,40.8489305 L128.54261,40.8489305 L128.54261,44.5900178 L134.012377,44.5900178 L136.233602,46.7858734 L136.233602,52.8312537 Z M157.773315,52.8312537 L155.55209,55 L141.231359,55 L139.010134,52.8312537 L139.010134,43.370098 L141.231359,41.2013518 L155.55209,41.2013518 L157.773315,43.370098 L157.773315,52.8312537 Z M154.552539,51.9908645 L154.552539,44.2104872 L142.23091,44.2104872 L142.23091,51.9908645 L154.552539,51.9908645 Z M160.966327,38.7344029 L163.187552,36.5656566 L166.963634,36.5656566 L166.963634,39.574792 L164.187103,39.574792 L164.187103,41.2013518 L166.963634,41.2013518 L166.963634,44.2104872 L164.187103,44.2104872 L164.187103,55 L160.966327,55 L160.966327,44.2104872 L159.578061,44.2104872 L159.578061,41.2013518 L160.966327,41.2013518 L160.966327,38.7344029 Z M175.959596,44.2104872 L172.905411,44.2104872 L172.905411,51.9908645 L175.904065,51.9908645 L175.904065,55 L171.90586,55 L169.684635,52.8312537 L169.684635,44.2104872 L168.018716,44.2104872 L168.018716,43.5056447 L169.684635,41.2013518 L169.684635,37.7855764 L172.211279,36.5656566 L172.905411,36.5656566 L172.905411,41.2013518 L175.959596,41.2013518 L175.959596,44.2104872 Z" id="Combined-Shape"></path>
                </g>
            </g>
        </g>
    </g>
</svg>