<svg xmlns="http://www.w3.org/2000/svg" xmlns:xlink="http://www.w3.org/1999/xlink"><defs><symbol viewBox="0 0 477.175 477.175" id="back-arrow">
<g>
	<path d="M145.188,238.575l215.5-215.5c5.3-5.3,5.3-13.8,0-19.1s-13.8-5.3-19.1,0l-225.1,225.1c-5.3,5.3-5.3,13.8,0,19.1l225.1,225
		c2.6,2.6,6.1,4,9.5,4s6.9-1.3,9.5-4c5.3-5.3,5.3-13.8,0-19.1L145.188,238.575z" />
</g>
<g>
</g>
<g>
</g>
<g>
</g>
<g>
</g>
<g>
</g>
<g>
</g>
<g>
</g>
<g>
</g>
<g>
</g>
<g>
</g>
<g>
</g>
<g>
</g>
<g>
</g>
<g>
</g>
<g>
</g>
</symbol><symbol viewBox="0 0 44 44" id="checked">
  <path d="m22,0c-12.2,0-22,9.8-22,22s9.8,22 22,22 22-9.8 22-22-9.8-22-22-22zm12.7,15.1l0,0-16,16.6c-0.2,0.2-0.4,0.3-0.7,0.3-0.3,0-0.6-0.1-0.7-0.3l-7.8-8.4-.2-.2c-0.2-0.2-0.3-0.5-0.3-0.7s0.1-0.5 0.3-0.7l1.4-1.4c0.4-0.4 1-0.4 1.4,0l.1,.1 5.5,5.9c0.2,0.2 0.5,0.2 0.7,0l13.4-13.9h0.1c0.4-0.4 1-0.4 1.4,0l1.4,1.4c0.4,0.3 0.4,0.9 0,1.3z" />
</symbol><symbol viewBox="0 0 47.971 47.971" id="close">
<g>
	<path d="M28.228,23.986L47.092,5.122c1.172-1.171,1.172-3.071,0-4.242c-1.172-1.172-3.07-1.172-4.242,0L23.986,19.744L5.121,0.88
		c-1.172-1.172-3.07-1.172-4.242,0c-1.172,1.171-1.172,3.071,0,4.242l18.865,18.864L0.879,42.85c-1.172,1.171-1.172,3.071,0,4.242
		C1.465,47.677,2.233,47.97,3,47.97s1.535-0.293,2.121-0.879l18.865-18.864L42.85,47.091c0.586,0.586,1.354,0.879,2.121,0.879
		s1.535-0.293,2.121-0.879c1.172-1.171,1.172-3.071,0-4.242L28.228,23.986z" />
</g>
<g>
</g>
<g>
</g>
<g>
</g>
<g>
</g>
<g>
</g>
<g>
</g>
<g>
</g>
<g>
</g>
<g>
</g>
<g>
</g>
<g>
</g>
<g>
</g>
<g>
</g>
<g>
</g>
<g>
</g>
</symbol><symbol viewBox="0 0 51.976 51.976" id="close-icon">
<g>
	<path d="M44.373,7.603c-10.137-10.137-26.632-10.138-36.77,0c-10.138,10.138-10.137,26.632,0,36.77s26.632,10.138,36.77,0
		C54.51,34.235,54.51,17.74,44.373,7.603z M36.241,36.241c-0.781,0.781-2.047,0.781-2.828,0l-7.425-7.425l-7.778,7.778
		c-0.781,0.781-2.047,0.781-2.828,0c-0.781-0.781-0.781-2.047,0-2.828l7.778-7.778l-7.425-7.425c-0.781-0.781-0.781-2.048,0-2.828
		c0.781-0.781,2.047-0.781,2.828,0l7.425,7.425l7.071-7.071c0.781-0.781,2.047-0.781,2.828,0c0.781,0.781,0.781,2.047,0,2.828
		l-7.071,7.071l7.425,7.425C37.022,34.194,37.022,35.46,36.241,36.241z" />
</g>
<g>
</g>
<g>
</g>
<g>
</g>
<g>
</g>
<g>
</g>
<g>
</g>
<g>
</g>
<g>
</g>
<g>
</g>
<g>
</g>
<g>
</g>
<g>
</g>
<g>
</g>
<g>
</g>
<g>
</g>
</symbol><symbol viewBox="0 0 21.825 21.825" id="down-arrow">
<path d="M16.791,13.254c0.444-0.444,1.143-0.444,1.587,0c0.429,0.444,0.429,1.143,0,1.587l-6.65,6.651
	c-0.206,0.206-0.492,0.333-0.809,0.333c-0.317,0-0.603-0.127-0.81-0.333l-6.65-6.651c-0.444-0.444-0.444-1.143,0-1.587
	s1.143-0.444,1.587,0l4.746,4.762V1.111C9.791,0.492,10.299,0,10.918,0c0.619,0,1.111,0.492,1.111,1.111v16.904L16.791,13.254z" />
<g>
</g>
<g>
</g>
<g>
</g>
<g>
</g>
<g>
</g>
<g>
</g>
<g>
</g>
<g>
</g>
<g>
</g>
<g>
</g>
<g>
</g>
<g>
</g>
<g>
</g>
<g>
</g>
<g>
</g>
</symbol><symbol viewBox="0 0 50 50" id="info">
<circle cx="25" cy="25" r="25" />
<line style="fill:none;stroke:#000000;stroke-width:2;stroke-linecap:round;stroke-miterlimit:10;" x1="25" y1="37" x2="25" y2="39" />
<path style="fill:none;stroke:#000000;stroke-width:2;stroke-linecap:round;stroke-miterlimit:10;" d="M18,16
	c0-3.899,3.188-7.054,7.1-6.999c3.717,0.052,6.848,3.182,6.9,6.9c0.035,2.511-1.252,4.723-3.21,5.986
	C26.355,23.457,25,26.261,25,29.158V32" />
<g>
</g>
<g>
</g>
<g>
</g>
<g>
</g>
<g>
</g>
<g>
</g>
<g>
</g>
<g>
</g>
<g>
</g>
<g>
</g>
<g>
</g>
<g>
</g>
<g>
</g>
<g>
</g>
<g>
</g>
</symbol><symbol viewBox="0 0 55 50.8" id="map">
<g>
	<path d="M20,4.3l15,3.5v40l-15-2.6V4.3 M19,2c-0.2,0-0.4,0.1-0.6,0.2C18.1,2.4,18,2.7,18,3v43c0,0.5,0.3,0.9,0.8,1l17,3
		c0.1,0,0.1,0,0.2,0c0.2,0,0.5-0.1,0.6-0.2c0.2-0.2,0.4-0.5,0.4-0.8V7c0-0.5-0.3-0.9-0.8-1l-17-4C19.2,2,19.1,2,19,2L19,2z" />
	<g>
		<path d="M54.6,0.2C54.3,0,54-0.1,53.7,0.1l-18,6C35.3,6.2,35,6.6,35,7v42c0,0.3,0.2,0.6,0.4,0.8c0.2,0.1,0.4,0.2,0.6,0.2
			c0.1,0,0.2,0,0.4-0.1l18-7c0.4-0.1,0.6-0.5,0.6-0.9V1C55,0.7,54.8,0.4,54.6,0.2z" />
		<path d="M18.8,2l-18,4C0.3,6.1,0,6.5,0,7v43c0,0.3,0.1,0.6,0.4,0.8C0.6,50.9,0.8,51,1,51c0.1,0,0.1,0,0.2,0l18-4
			c0.5-0.1,0.8-0.5,0.8-1V3c0-0.3-0.1-0.6-0.4-0.8C19.4,2,19.1,2,18.8,2z" />
	</g>
</g>
</symbol><symbol viewBox="0 0 385 194.5" id="menu">
<g>
	<g id="menu_Menu_1_">
		<path d="M12,24.8h360.9c6.6,0,12-5.4,12-12c0-6.6-5.4-12-12-12H12c-6.6,0-12,5.4-12,12S5.4,24.8,12,24.8z" />
		<path d="M372.9,85H12C5.4,85,0,90.4,0,97s5.4,12,12,12h360.9c6.6,0,12-5.4,12-12S379.6,85,372.9,85z" />
		<path d="M372.9,169.2H132.3c-6.6,0-12,5.4-12,12c0,6.6,5.4,12,12,12h240.6c6.6,0,12-5.4,12-12C385,174.6,379.6,169.2,372.9,169.2z
			" />
	</g>
</g>
</symbol><symbol viewBox="0 0 60 60" id="play-button">
<path d="M30,0C13.458,0,0,13.458,0,30s13.458,30,30,30s30-13.458,30-30S46.542,0,30,0z M45.563,30.826l-22,15
	C23.394,45.941,23.197,46,23,46c-0.16,0-0.321-0.038-0.467-0.116C22.205,45.711,22,45.371,22,45V15c0-0.371,0.205-0.711,0.533-0.884
	c0.328-0.174,0.724-0.15,1.031,0.058l22,15C45.836,29.36,46,29.669,46,30S45.836,30.64,45.563,30.826z" />
<g>
</g>
<g>
</g>
<g>
</g>
<g>
</g>
<g>
</g>
<g>
</g>
<g>
</g>
<g>
</g>
<g>
</g>
<g>
</g>
<g>
</g>
<g>
</g>
<g>
</g>
<g>
</g>
<g>
</g>
</symbol><symbol viewBox="0 0 52 52" id="plus">
<path d="M26,0C11.664,0,0,11.663,0,26s11.664,26,26,26s26-11.663,26-26S40.336,0,26,0z M38.5,28H28v11c0,1.104-0.896,2-2,2
	s-2-0.896-2-2V28H13.5c-1.104,0-2-0.896-2-2s0.896-2,2-2H24V14c0-1.104,0.896-2,2-2s2,0.896,2,2v10h10.5c1.104,0,2,0.896,2,2
	S39.604,28,38.5,28z" />
<g>
</g>
<g>
</g>
<g>
</g>
<g>
</g>
<g>
</g>
<g>
</g>
<g>
</g>
<g>
</g>
<g>
</g>
<g>
</g>
<g>
</g>
<g>
</g>
<g>
</g>
<g>
</g>
<g>
</g>
</symbol><symbol viewBox="0 0 31.5 22" id="right-arrow">
<path d="M21.2,0.2c-0.4-0.4-1.1-0.4-1.6,0c-0.4,0.4-0.4,1.1,0,1.6l8,8H1.1C0.5,9.9,0,10.4,0,11s0.5,1.1,1.1,1.1h26.6l-8,8
	c-0.4,0.4-0.4,1.2,0,1.6c0.4,0.4,1.2,0.4,1.6,0l10-10c0.4-0.4,0.4-1.1,0-1.6L21.2,0.2z" />
</symbol><symbol viewBox="0 0 103 14" id="takasho-logo-footer">
    <!-- Generator: Sketch 52.3 (67297) - http://www.bohemiancoding.com/sketch -->
    <title>Group</title>
    <desc>Created with Sketch.</desc>
    <g id="takasho-logo-footer_Page-1" stroke="none" stroke-width="1" fill-rule="evenodd">
        <g id="takasho-logo-footer_screen9-600" transform="translate(-1175.000000, -556.000000)">
            <g id="takasho-logo-footer_Group-2" transform="translate(147.000000, 556.000000)">
                <g id="takasho-logo-footer_Копирайт" transform="translate(919.000000, 0.000000)">
                    <g id="takasho-logo-footer_Group" transform="translate(109.000000, 0.000000)">
                        <path d="M24.5970435,7.03431373 L26.2054994,7.03431373 L25.015242,12.6317402 L21.7983303,12.6317402 L22.9885876,7.03431373 L21.3801317,7.03431373 L21.9028799,4.58946078 L19.4901961,4.58946078 L20.1737898,1.37254902 L28.2160692,1.37254902 L27.5324755,4.58946078 L25.1197917,4.58946078 L24.5970435,7.03431373 Z M32.7615656,7.00214461 L33.4129902,7.00214461 L33.348652,5.81188725 L32.7615656,7.00214461 Z M34.3780637,7.00214461 L33.5899203,8.61060049 L35.1099112,8.61060049 L35.0294884,7.00214461 L34.3780637,7.00214461 Z M36.7103248,7.00214461 L38.3268229,7.00214461 L38.616345,12.6317402 L35.3190104,12.6317402 L35.278799,11.8275123 L32.0136336,11.8275123 L31.6195619,12.6236979 L28.3222273,12.6236979 L31.0887714,7.00214461 L29.4722733,7.00214461 L32.2388174,1.37254902 L36.4208027,1.37254902 L36.7103248,7.00214461 Z M45.7916667,7.03431373 L47.4001225,7.03431373 L49.5634957,12.6317402 L45.8640472,12.6317402 L43.8373928,7.40425858 L42.7275582,12.6317402 L39.5106464,12.6317402 L40.7009038,7.03431373 L39.0924479,7.03431373 L40.2987898,1.37254902 L43.5157016,1.37254902 L42.3978248,6.60003064 L46.6521906,1.37254902 L50.3516391,1.37254902 L45.7755821,7.00214461 L45.7916667,7.03431373 Z M58.9922641,7.00214461 L59.6436887,7.00214461 L59.5793505,5.81188725 L58.9922641,7.00214461 Z M60.6087623,7.00214461 L59.8206189,8.61060049 L61.3406097,8.61060049 L61.2601869,7.00214461 L60.6087623,7.00214461 Z M62.9410233,7.00214461 L64.5575214,7.00214461 L64.8470435,12.6317402 L61.5497089,12.6317402 L61.5094975,11.8275123 L58.2443321,11.8275123 L57.8502604,12.6236979 L54.5529259,12.6236979 L57.31947,7.00214461 L55.7029718,7.00214461 L58.4695159,1.37254902 L62.6515012,1.37254902 L62.9410233,7.00214461 Z M78.0476409,6.96193321 L79.6560968,6.96193321 C79.9509819,7.55706486 80.0180002,8.24065178 79.8571538,9.01271446 C79.6426919,10.0099621 79.1065453,10.8624352 78.2486979,11.5701593 C77.3908505,12.2778834 76.4633169,12.6317402 75.4660692,12.6317402 L70.2385876,12.6317402 L70.9221814,9.41482843 L76.149663,9.41482843 C76.2622555,9.41482843 76.3654637,9.3759578 76.4592907,9.29821538 C76.5531178,9.22047296 76.6134343,9.12530694 76.640242,9.01271446 C76.6616882,8.90012199 76.6415827,8.80495596 76.5799249,8.72721354 C76.5182672,8.64947112 76.4311433,8.61060049 76.3185509,8.61060049 L74.710095,8.61060049 C73.7128473,8.61060049 72.9354348,8.25674373 72.3778339,7.54901961 C72.2330722,7.36136548 72.1124392,7.16567197 72.0159314,6.96193321 L70.4074755,6.96193321 C70.1447597,6.3828862 70.0938258,5.72610661 70.2546722,4.99157475 C70.4637725,3.99432712 70.9985787,3.14185403 71.8591069,2.4341299 C72.7196351,1.72640578 73.6485091,1.37254902 74.6457567,1.37254902 L79.8732384,1.37254902 L79.1896446,4.58946078 L73.962163,4.58946078 C73.8495705,4.58946078 73.7450219,4.62833141 73.6485141,4.70607384 C73.5520063,4.78381626 73.4930301,4.87898228 73.4715839,4.99157475 C73.4447762,5.10416723 73.462201,5.19933325 73.5238588,5.27707567 C73.5855165,5.3548181 73.6726404,5.39368873 73.7852328,5.39368873 L75.3936887,5.39368873 C76.3909364,5.39368873 77.1683489,5.74754548 77.7259498,6.45526961 C77.8546269,6.616116 77.9618562,6.78500218 78.0476409,6.96193321 Z M88.7374387,6.99410233 L90.3458946,6.99410233 L89.147595,12.6317402 L85.9306832,12.6317402 L86.7831648,8.61060049 L84.370481,8.61060049 L83.5179994,12.6317402 L80.3010876,12.6317402 L81.4993873,6.99410233 L79.8909314,6.99410233 L81.089231,1.37254902 L84.3061428,1.37254902 L83.4456189,5.39368873 L85.8583027,5.39368873 L86.7188266,1.37254902 L89.9357384,1.37254902 L88.7374387,6.99410233 Z M99.6122089,6.96193321 L98.0037531,6.96193321 C98.1324302,6.30782455 98.0144779,5.75023208 97.6498928,5.28913909 C97.2799461,4.82268455 96.7625646,4.58946078 96.0977328,4.58946078 C95.4329011,4.58946078 94.8136518,4.82268455 94.2399663,5.28913909 C93.6770039,5.75023208 93.3231472,6.30782455 93.1783854,6.96193321 L94.7868413,6.96193321 C94.7868413,6.9726563 94.7841606,6.98605997 94.778799,7.00214461 C94.6340373,7.66697636 94.7479684,8.23529176 95.1205959,8.70710784 C95.4932234,9.17892393 96.0119452,9.41482843 96.676777,9.41482843 C97.3416087,9.41482843 97.9595177,9.17892393 98.5305224,8.70710784 C99.1015271,8.23529176 99.4594049,7.66697636 99.6041667,7.00214461 C99.6095282,6.98605997 99.6122089,6.9726563 99.6122089,6.96193321 Z M91.5699295,6.96193321 L89.9614737,6.96193321 C90.2938895,5.42316939 91.122236,4.10961022 92.446538,3.0212163 C93.781563,1.92209928 95.2264781,1.37254902 96.7813266,1.37254902 C98.3361751,1.37254902 99.5451856,1.92209928 100.408395,3.0212163 C101.266242,4.10961022 101.536996,5.42316939 101.220665,6.96193321 L102.829121,6.96193321 C102.829121,6.9726563 102.82644,6.98605997 102.821078,7.00214461 C102.488663,8.55699307 101.656295,9.8839559 100.323951,10.9830729 C98.9916064,12.0821899 97.5480317,12.6317402 95.9931832,12.6317402 C94.4383348,12.6317402 93.2279838,12.0821899 92.3620941,10.9830729 C91.4962043,9.8839559 91.2294714,8.55699307 91.5618873,7.00214461 C91.5672488,6.98605997 91.5699295,6.9726563 91.5699295,6.96193321 Z" id="takasho-logo-footer_TAK-A-SHO-Copy" />
                        <g id="takasho-logo-footer_Group-5">
                            <path d="M5.48039216,0 L3.98039216,7.04 L5.98039216,7.04 L4.50039216,14 L0,14 L0,7 L0,0 L5.48039216,0 Z M9.48039216,0 L14,0 L14,7 L14,14 L8.50039216,14 L9.98039216,7.04 L7.98039216,7.04 L9.48039216,0 Z" id="takasho-logo-footer_Combined-Shape" />
                        </g>
                    </g>
                </g>
            </g>
        </g>
    </g>
</symbol><symbol viewBox="0 0 53 50" id="truelife-logo">
    <!-- Generator: Sketch 52.3 (67297) - http://www.bohemiancoding.com/sketch -->
    <title>Combined Shape</title>
    <desc>Created with Sketch.</desc>
    <g id="truelife-logo_Page-1" stroke="none" stroke-width="1">
        <g id="truelife-logo_600px" transform="translate(-30.000000, -30.000000)">
            <path d="M60.2083333,68.5722222 L60.2389706,68.5416667 L82.6041667,68.5416667 L82.6041667,80 L60.2083333,80 L48.2291667,80 L48.2291667,46.1458333 L60.2083333,46.1458333 L60.2083333,68.5722222 Z M41.5327381,30 L78.4375,30 L78.4375,41.4583333 L30,41.4583333 L41.5327381,30 Z" id="truelife-logo_Combined-Shape" />
        </g>
    </g>
</symbol></defs></svg>