<svg xmlns="http://www.w3.org/2000/svg" xmlns:xlink="http://www.w3.org/1999/xlink"><defs><symbol viewBox="0 0 44 44" id="checked">
  <path d="m22,0c-12.2,0-22,9.8-22,22s9.8,22 22,22 22-9.8 22-22-9.8-22-22-22zm12.7,15.1l0,0-16,16.6c-0.2,0.2-0.4,0.3-0.7,0.3-0.3,0-0.6-0.1-0.7-0.3l-7.8-8.4-.2-.2c-0.2-0.2-0.3-0.5-0.3-0.7s0.1-0.5 0.3-0.7l1.4-1.4c0.4-0.4 1-0.4 1.4,0l.1,.1 5.5,5.9c0.2,0.2 0.5,0.2 0.7,0l13.4-13.9h0.1c0.4-0.4 1-0.4 1.4,0l1.4,1.4c0.4,0.3 0.4,0.9 0,1.3z" />
</symbol><symbol viewBox="0 0 51.976 51.976" id="close-icon">
<g>
	<path d="M44.373,7.603c-10.137-10.137-26.632-10.138-36.77,0c-10.138,10.138-10.137,26.632,0,36.77s26.632,10.138,36.77,0
		C54.51,34.235,54.51,17.74,44.373,7.603z M36.241,36.241c-0.781,0.781-2.047,0.781-2.828,0l-7.425-7.425l-7.778,7.778
		c-0.781,0.781-2.047,0.781-2.828,0c-0.781-0.781-0.781-2.047,0-2.828l7.778-7.778l-7.425-7.425c-0.781-0.781-0.781-2.048,0-2.828
		c0.781-0.781,2.047-0.781,2.828,0l7.425,7.425l7.071-7.071c0.781-0.781,2.047-0.781,2.828,0c0.781,0.781,0.781,2.047,0,2.828
		l-7.071,7.071l7.425,7.425C37.022,34.194,37.022,35.46,36.241,36.241z" />
</g>
<g>
</g>
<g>
</g>
<g>
</g>
<g>
</g>
<g>
</g>
<g>
</g>
<g>
</g>
<g>
</g>
<g>
</g>
<g>
</g>
<g>
</g>
<g>
</g>
<g>
</g>
<g>
</g>
<g>
</g>
</symbol><symbol viewBox="0 0 21.825 21.825" id="down-arrow">
<path d="M16.791,13.254c0.444-0.444,1.143-0.444,1.587,0c0.429,0.444,0.429,1.143,0,1.587l-6.65,6.651
	c-0.206,0.206-0.492,0.333-0.809,0.333c-0.317,0-0.603-0.127-0.81-0.333l-6.65-6.651c-0.444-0.444-0.444-1.143,0-1.587
	s1.143-0.444,1.587,0l4.746,4.762V1.111C9.791,0.492,10.299,0,10.918,0c0.619,0,1.111,0.492,1.111,1.111v16.904L16.791,13.254z" />
<g>
</g>
<g>
</g>
<g>
</g>
<g>
</g>
<g>
</g>
<g>
</g>
<g>
</g>
<g>
</g>
<g>
</g>
<g>
</g>
<g>
</g>
<g>
</g>
<g>
</g>
<g>
</g>
<g>
</g>
</symbol><symbol viewBox="0 0 50 50" id="info">
<circle cx="25" cy="25" r="25" />
<line style="fill:none;stroke:#000000;stroke-width:2;stroke-linecap:round;stroke-miterlimit:10;" x1="25" y1="37" x2="25" y2="39" />
<path style="fill:none;stroke:#000000;stroke-width:2;stroke-linecap:round;stroke-miterlimit:10;" d="M18,16
	c0-3.899,3.188-7.054,7.1-6.999c3.717,0.052,6.848,3.182,6.9,6.9c0.035,2.511-1.252,4.723-3.21,5.986
	C26.355,23.457,25,26.261,25,29.158V32" />
<g>
</g>
<g>
</g>
<g>
</g>
<g>
</g>
<g>
</g>
<g>
</g>
<g>
</g>
<g>
</g>
<g>
</g>
<g>
</g>
<g>
</g>
<g>
</g>
<g>
</g>
<g>
</g>
<g>
</g>
</symbol><symbol viewBox="0 0 55 50.8" id="map">
<g>
	<path d="M20,4.3l15,3.5v40l-15-2.6V4.3 M19,2c-0.2,0-0.4,0.1-0.6,0.2C18.1,2.4,18,2.7,18,3v43c0,0.5,0.3,0.9,0.8,1l17,3
		c0.1,0,0.1,0,0.2,0c0.2,0,0.5-0.1,0.6-0.2c0.2-0.2,0.4-0.5,0.4-0.8V7c0-0.5-0.3-0.9-0.8-1l-17-4C19.2,2,19.1,2,19,2L19,2z" />
	<g>
		<path d="M54.6,0.2C54.3,0,54-0.1,53.7,0.1l-18,6C35.3,6.2,35,6.6,35,7v42c0,0.3,0.2,0.6,0.4,0.8c0.2,0.1,0.4,0.2,0.6,0.2
			c0.1,0,0.2,0,0.4-0.1l18-7c0.4-0.1,0.6-0.5,0.6-0.9V1C55,0.7,54.8,0.4,54.6,0.2z" />
		<path d="M18.8,2l-18,4C0.3,6.1,0,6.5,0,7v43c0,0.3,0.1,0.6,0.4,0.8C0.6,50.9,0.8,51,1,51c0.1,0,0.1,0,0.2,0l18-4
			c0.5-0.1,0.8-0.5,0.8-1V3c0-0.3-0.1-0.6-0.4-0.8C19.4,2,19.1,2,18.8,2z" />
	</g>
</g>
</symbol><symbol viewBox="0 0 385 194.5" id="menu">
<g>
	<g id="menu_Menu_1_">
		<path d="M12,24.8h360.9c6.6,0,12-5.4,12-12c0-6.6-5.4-12-12-12H12c-6.6,0-12,5.4-12,12S5.4,24.8,12,24.8z" />
		<path d="M372.9,85H12C5.4,85,0,90.4,0,97s5.4,12,12,12h360.9c6.6,0,12-5.4,12-12S379.6,85,372.9,85z" />
		<path d="M372.9,169.2H132.3c-6.6,0-12,5.4-12,12c0,6.6,5.4,12,12,12h240.6c6.6,0,12-5.4,12-12C385,174.6,379.6,169.2,372.9,169.2z
			" />
	</g>
</g>
</symbol><symbol viewBox="0 0 60 60" id="play-button">
<path d="M30,0C13.458,0,0,13.458,0,30s13.458,30,30,30s30-13.458,30-30S46.542,0,30,0z M45.563,30.826l-22,15
	C23.394,45.941,23.197,46,23,46c-0.16,0-0.321-0.038-0.467-0.116C22.205,45.711,22,45.371,22,45V15c0-0.371,0.205-0.711,0.533-0.884
	c0.328-0.174,0.724-0.15,1.031,0.058l22,15C45.836,29.36,46,29.669,46,30S45.836,30.64,45.563,30.826z" />
<g>
</g>
<g>
</g>
<g>
</g>
<g>
</g>
<g>
</g>
<g>
</g>
<g>
</g>
<g>
</g>
<g>
</g>
<g>
</g>
<g>
</g>
<g>
</g>
<g>
</g>
<g>
</g>
<g>
</g>
</symbol><symbol viewBox="0 0 52 52" id="plus">
<path d="M26,0C11.664,0,0,11.663,0,26s11.664,26,26,26s26-11.663,26-26S40.336,0,26,0z M38.5,28H28v11c0,1.104-0.896,2-2,2
	s-2-0.896-2-2V28H13.5c-1.104,0-2-0.896-2-2s0.896-2,2-2H24V14c0-1.104,0.896-2,2-2s2,0.896,2,2v10h10.5c1.104,0,2,0.896,2,2
	S39.604,28,38.5,28z" />
<g>
</g>
<g>
</g>
<g>
</g>
<g>
</g>
<g>
</g>
<g>
</g>
<g>
</g>
<g>
</g>
<g>
</g>
<g>
</g>
<g>
</g>
<g>
</g>
<g>
</g>
<g>
</g>
<g>
</g>
</symbol><symbol viewBox="0 0 31.5 22" id="right-arrow">
<path d="M21.2,0.2c-0.4-0.4-1.1-0.4-1.6,0c-0.4,0.4-0.4,1.1,0,1.6l8,8H1.1C0.5,9.9,0,10.4,0,11s0.5,1.1,1.1,1.1h26.6l-8,8
	c-0.4,0.4-0.4,1.2,0,1.6c0.4,0.4,1.2,0.4,1.6,0l10-10c0.4-0.4,0.4-1.1,0-1.6L21.2,0.2z" />
</symbol><symbol viewBox="0 0 53 50" id="truelife-logo">
    <!-- Generator: Sketch 52.3 (67297) - http://www.bohemiancoding.com/sketch -->
    <title>Combined Shape</title>
    <desc>Created with Sketch.</desc>
    <g id="truelife-logo_Page-1" stroke="none" stroke-width="1">
        <g id="truelife-logo_600px" transform="translate(-30.000000, -30.000000)">
            <path d="M60.2083333,68.5722222 L60.2389706,68.5416667 L82.6041667,68.5416667 L82.6041667,80 L60.2083333,80 L48.2291667,80 L48.2291667,46.1458333 L60.2083333,46.1458333 L60.2083333,68.5722222 Z M41.5327381,30 L78.4375,30 L78.4375,41.4583333 L30,41.4583333 L41.5327381,30 Z" id="truelife-logo_Combined-Shape" />
        </g>
    </g>
</symbol></defs></svg>